<?xml version="1.0" encoding="UTF-8"?>
<svg xmlns="http://www.w3.org/2000/svg" version="1.1" viewBox="0 0 437.3 377.7">
  <defs>
    <style>
      .cls-1 {
        fill: #fff;
        stroke: #fff;
        stroke-miterlimit: 10;
        stroke-width: 7px;
      }
    </style>
  </defs>
  <!-- Generator: Adobe Illustrator 28.7.1, SVG Export Plug-In . SVG Version: 1.2.0 Build 142)  -->
  <g>
    <g id="Layer_1">
      <g id="Layer_2">
        <g id="Layer_1-2">
          <path class="cls-1" d="M233.1,363.7c43.2-2.2,62.5-5.6,97.8-20.8,23-9.9,47.3-27.6,58.8-43.6,7.2-10,22.1-32,26.3-53.1,4-19.7,4.1-40.6.9-55.6-2.1-10.3-5.9-20.2-9.8-29.8-1.3-3.4-2.7-6.9-3.3-10.5-2.1-10.9,5.5-15,12.5-8.5,4.1,3.9,6.9,9.5,8.9,15,8.7,23.3,8.5,49,4.9,73.2-4.2,30-20.6,57.7-39.6,80.6-24,27.3-61.7,45.4-95.2,54-34.6,8.8-78,10.4-121.9-.2-10.5-2.5-20.8-4.9-31.2-7.8-18.7-5.9-38.2-6.6-57.4-4.5-6.5.4-13.5,1.5-19.8-.7-8.9-2.7-11.2-15.5-1.6-18.9,6.1-1.9,13.4,1.4,19.7,2.3,10,1.7,20.3-1.7,27.8-9.1,8-7.6,12.7-18.7,18.1-28.7,4.6-8.8,9.4-17.5,13.8-26.5,4.6-9.7,10.2-22.6,2.6-32-2.2-3-5.3-5.4-8.3-7.5-11.3-8-23.5-15.7-37.1-16.7-11.7-.9-23.3,3.4-34.9,4.3-5.5.4-10.9-.6-13.9-4.2-3.6-3.8-3.3-10.8,2-12.6,5-1.9,10.6-.4,15.7-.3,23.5,1.5,35-23.1,46.3-41.4,12.4-19.3,24.8-38.4,37.2-57.7,10.2-14.8,20.7-30,34.9-40.7,14.5-10.5,32.2-15.5,49.4-17.3,3.9-.3,7.6.2,9.6,1.4,3.3,1.7,2.1,4.7-.7,6.2-5,2.8-12,2.7-17.9,3.3-14.1,1.4-28.5,6.2-40.1,14.9-15.6,12.9-26.7,31.2-37.2,49-13,22.4-25.4,45.4-37.8,68.2-11.2,22.2,10.5,24.6,23.7,33.9,6.8,3.9,13.9,11.3,22,9.6,6.9-2,11.1-9.6,15.8-15,7.4-9,16.3-17.8,26.8-21.5,16.5-6,34.9,1.1,40.5,20,7.2,21.7-9.7,38.5-28.7,41.2-9.9,1.8-19.8,1.9-29.7.2-12.2-2.6-20.9-1.4-28.3,10.6-8.5,13.5-15.3,28-22.7,42.2-7.8,16.9-7.9,24.7-4.1,28.6,4.8,4.9,39.6,20,69.2,24.8,9.4,1.5,26,2.3,36.1,1.9h0ZM195.3,249.3c14.4-.2,32.6-1.5,39.8-16.7,5.8-13-1.6-29.4-13.6-33.4-15.1-5.3-33.4,5.6-41.1,18.8-11,18.6-10,31,15,31.2h0Z"/>
          <path class="cls-1" d="M126.6,41.9c-31.2,15.2-60.5,40.6-86.4,90.3-8.1,15.5-14.7,32.5-17.9,50.3-2.8,15.7-4.9,41.3,5.2,66.7,2.2,6.4,4.4,13.2,3.7,20.1-.3,6-4.9,12-9.8,9.5-3.6-1.5-6.8-6.3-8.9-11.8-16.8-47.7,2.7-112.6,26.9-153.4C87.9,31.4,168.6,15.4,203,9.4c67.3-11.7,101.4-3.9,129.6,14.3,14.3,9.2,33.2,26.8,33.2,61.3s-25.7,60.5-65.5,73.2c-22.1,8.9-23.5,16.6-12.8,39.9,13.1,30.1,40.5,53.6,70,42,6.6-2.3,11.8-9.6,18-12.3,3.4-1.4,6.5-.3,7.7,3.1,1.8,4.5-1.6,11.1-5.3,14-41.9,31.9-79.2-3.6-98.9-47.9-10.4-23.3-15.9-29.1-42.9-30.3-4.9-.6-10.2-.5-14.8-2.8-5.4-2.4-7.5-12.7-2.7-16.3,4.7-3.6,13.6,3.7,19.2,6,33.9,13.9,61.5-2.3,84.9-16.3,25.9-16.8,32.5-35.8,31.6-59-.8-21.2-18.1-43.2-40.2-54.2-15.2-7.5-38.8-11.1-60.5-10.4-41,1.4-86.7,8.8-126.7,28.3h0Z"/>
        </g>
      </g>
    </g>
  </g>
</svg>